<svg xmlns="http://www.w3.org/2000/svg" viewBox="0 0 512 512" role="img" aria-label="Echo Weather">
  <defs>
    <linearGradient id="sky" x1="128" y1="64" x2="448" y2="448" gradientUnits="userSpaceOnUse">
      <stop offset="0%" stop-color="#003875"/>
      <stop offset="100%" stop-color="#001845"/>
    </linearGradient>
    <radialGradient id="originGlow" cx="64" cy="448" r="220" gradientUnits="userSpaceOnUse">
      <stop offset="0%" stop-color="#7fffff" stop-opacity="0.4"/>
      <stop offset="55%" stop-color="#3c91e6" stop-opacity="0.1"/>
      <stop offset="100%" stop-color="#3c91e6" stop-opacity="0"/>
    </radialGradient>
  </defs>

  <rect width="512" height="512" fill="url(#sky)"/>
  <rect width="512" height="512" fill="url(#originGlow)"/>

  <g transform="translate(48 -48) scale(0.82)" fill="none" stroke-linecap="round">
    <path d="M 0 352 A 160 160 0 0 1 160 512" stroke="#7fffff" stroke-width="14" opacity="0.92"/>
    <path d="M 0 256 A 256 256 0 0 1 256 512" stroke="#8ec8ff" stroke-width="11" opacity="0.72"/>
    <path d="M 0 148 A 364 364 0 0 1 364 512" stroke="#3c91e6" stroke-width="9" opacity="0.55"/>
    <path d="M 0 52 A 460 460 0 0 1 460 512" stroke="#7fffff" stroke-width="7" opacity="0.32"/>
  </g>

  <g transform="translate(48 -48) scale(0.82)">
    <circle cx="198" cy="314" r="16" fill="#ffffff"/>
    <circle cx="198" cy="314" r="24" fill="#7fffff" opacity="0.28"/>
    <circle cx="302" cy="210" r="10" fill="#7fffff" opacity="0.85"/>
    <circle cx="118" cy="394" r="7" fill="#8ec8ff" opacity="0.9"/>
  </g>
</svg>
