<svg xmlns="http://www.w3.org/2000/svg" viewBox="0 0 512 512" role="img" aria-label="Echo Weather">
  <!-- Mark based on SVG Repo clouded-weather (CC0) · recolored for Echo Weather -->
  <g>
    <rect x="343.387" y="71.286" fill="#F0A028" width="36.046" height="50.645"/>
    <polygon fill="#F0A028" points="467.92,275.957 449.897,307.173 493.757,332.498 502.769,316.888 511.78,301.281"/>
    <polygon fill="#F0A028" points="468.139,194.212 512,168.889 502.988,153.28 493.977,137.672 450.116,162.994 459.128,178.602"/>
    <circle cx="361.189" cy="234.895" r="119.098" fill="#FFC04A"/>
    <path fill="#5aa8f0" d="M452.744,341.694c0-42.633-28.497-81.461-69.299-94.422l-14.597-4.638l-0.738-15.299c-3.362-69.779-60.762-124.441-130.677-124.441c-62.36,0-116.348,44.388-128.376,105.548l-2.959,15.058l-15.15,2.442C39.098,234.297,0,280.168,0,332.639c0,59.591,48.483,108.073,108.073,108.073h245.652C408.324,440.713,452.744,396.292,452.744,341.694z"/>
    <path fill="#3c91e6" d="M383.445,247.273l-14.597-4.638l-0.738-15.299c-3.362-69.779-60.762-124.441-130.677-124.441c-4.159,0-8.276,0.213-12.349,0.598v337.221h128.643c54.598,0,99.017-44.421,99.017-99.019C452.744,299.06,424.247,260.234,383.445,247.273z"/>
  </g>
</svg>
