<svg xmlns="http://www.w3.org/2000/svg" viewBox="0 0 512 512" role="img" aria-label="Echo Weather">
  <defs>
    <radialGradient id="originGlow" cx="0" cy="512" r="200" gradientUnits="userSpaceOnUse">
      <stop offset="0%" stop-color="#3c91e6" stop-opacity="0.2"/>
      <stop offset="100%" stop-color="#3c91e6" stop-opacity="0"/>
    </radialGradient>
  </defs>

  <rect width="512" height="512" fill="url(#originGlow)"/>

  <g fill="none" stroke-linecap="round">
    <path d="M 0 352 A 160 160 0 0 1 160 512" stroke="#3c91e6" stroke-width="18" opacity="0.35"/>
    <path d="M 0 352 A 160 160 0 0 1 160 512" stroke="#7fffff" stroke-width="10" opacity="0.9"/>
    <path d="M 0 256 A 256 256 0 0 1 256 512" stroke="#3c91e6" stroke-width="15" opacity="0.3"/>
    <path d="M 0 256 A 256 256 0 0 1 256 512" stroke="#8ec8ff" stroke-width="8" opacity="0.78"/>
    <path d="M 0 148 A 364 364 0 0 1 364 512" stroke="#3c91e6" stroke-width="12" opacity="0.25"/>
    <path d="M 0 148 A 364 364 0 0 1 364 512" stroke="#3c91e6" stroke-width="6" opacity="0.55"/>
    <path d="M 0 52 A 460 460 0 0 1 460 512" stroke="#3c91e6" stroke-width="10" opacity="0.2"/>
    <path d="M 0 52 A 460 460 0 0 1 460 512" stroke="#7fffff" stroke-width="5" opacity="0.35"/>
  </g>

  <circle cx="198" cy="314" r="18" fill="#3c91e6" opacity="0.25"/>
  <circle cx="198" cy="314" r="14" fill="#ffffff" stroke="#3c91e6" stroke-width="3"/>
  <circle cx="302" cy="210" r="9" fill="#7fffff"/>
  <circle cx="118" cy="394" r="6" fill="#8ec8ff"/>
</svg>
